<svg xmlns="http://www.w3.org/2000/svg" xmlns:xlink="http://www.w3.org/1999/xlink" contentStyleType="text/css" data-diagram-type="SEQUENCE" height="1766px" preserveAspectRatio="none" style="width:1090px;height:1766px;background:#FFFFFF;" version="1.1" viewBox="0 0 1090 1766" width="1090px" zoomAndPan="magnify"><title>FLEXT-API HTTP Request Processing Flow</title><defs/><g><text fill="#000000" font-family="sans-serif" font-size="14" font-weight="bold" lengthAdjust="spacing" textLength="299.9473" x="391.1663" y="28.5625">FLEXT-API HTTP Request Processing Flow</text><g><title>FastAPI App</title><rect fill="#FFFFFF" height="937.1553" style="stroke:#181818;stroke-width:1;" width="10" x="234.2681" y="211.0674"/></g><g><title>FlextApiClient</title><rect fill="#FFFFFF" height="745.0488" style="stroke:#181818;stroke-width:1;" width="10" x="445.6445" y="299.2559"/></g><g><title>Protocol Layer</title><rect fill="#FFFFFF" height="325.0244" style="stroke:#181818;stroke-width:1;" width="10" x="672.3403" y="560.3623"/></g><g><title>HTTPX Client</title><rect fill="#FFFFFF" height="207.1064" style="stroke:#181818;stroke-width:1;" width="10" x="847.5903" y="590.0918"/></g><g><title>External API</title><rect fill="#FFFFFF" height="89.1885" style="stroke:#181818;stroke-width:1;" width="10" x="1011.1016" y="678.2803"/></g><rect fill="none" height="460.6719" style="stroke:#000000;stroke-width:1.5;" width="1063.2798" x="10" y="1206.9521"/><g><title>Client Application</title><rect fill="#000000" fill-opacity="0.00000" height="1564.7451" width="8" x="77.4849" y="119.8789"/><line style="stroke:#181818;stroke-width:0.5;stroke-dasharray:5,5;" x1="81" x2="81" y1="119.8789" y2="1684.624"/></g><g><title>FastAPI App</title><rect fill="#000000" fill-opacity="0.00000" height="1564.7451" width="8" x="235.2681" y="119.8789"/><line style="stroke:#181818;stroke-width:0.5;stroke-dasharray:5,5;" x1="238.6694" x2="238.6694" y1="119.8789" y2="1684.624"/></g><g><title>FlextApiClient</title><rect fill="#000000" fill-opacity="0.00000" height="1564.7451" width="8" x="446.6445" y="119.8789"/><line style="stroke:#181818;stroke-width:0.5;stroke-dasharray:5,5;" x1="450.3379" x2="450.3379" y1="119.8789" y2="1684.624"/></g><g><title>Protocol Layer</title><rect fill="#000000" fill-opacity="0.00000" height="1564.7451" width="8" x="673.3403" y="119.8789"/><line style="stroke:#181818;stroke-width:0.5;stroke-dasharray:5,5;" x1="676.918" x2="676.918" y1="119.8789" y2="1684.624"/></g><g><title>HTTPX Client</title><rect fill="#000000" fill-opacity="0.00000" height="1564.7451" width="8" x="848.5903" y="119.8789"/><line style="stroke:#181818;stroke-width:0.5;stroke-dasharray:5,5;" x1="851.8936" x2="851.8936" y1="119.8789" y2="1684.624"/></g><g><title>External API</title><rect fill="#000000" fill-opacity="0.00000" height="1564.7451" width="8" x="1012.1016" y="119.8789"/><line style="stroke:#181818;stroke-width:0.5;stroke-dasharray:5,5;" x1="1015.9233" x2="1015.9233" y1="119.8789" y2="1684.624"/></g><g class="participant participant-head" data-participant="Client"><text fill="#000000" font-family="sans-serif" font-size="14" lengthAdjust="spacing" textLength="116.9697" x="20" y="116.502">Client Application</text><ellipse cx="81.4849" cy="51.4395" fill="#E2E2F0" rx="8" ry="8" style="stroke:#181818;stroke-width:0.5;"/><path d="M81.4849,59.4395 L81.4849,86.4395 M68.4849,67.4395 L94.4849,67.4395 M81.4849,86.4395 L68.4849,101.4395 M81.4849,86.4395 L94.4849,101.4395" fill="none" style="stroke:#181818;stroke-width:0.5;"/></g><g class="participant participant-tail" data-participant="Client"><text fill="#000000" font-family="sans-serif" font-size="14" lengthAdjust="spacing" textLength="116.9697" x="20" y="1697.1865">Client Application</text><ellipse cx="81.4849" cy="1709.0635" fill="#E2E2F0" rx="8" ry="8" style="stroke:#181818;stroke-width:0.5;"/><path d="M81.4849,1717.0635 L81.4849,1744.0635 M68.4849,1725.0635 L94.4849,1725.0635 M81.4849,1744.0635 L68.4849,1759.0635 M81.4849,1744.0635 L94.4849,1759.0635" fill="none" style="stroke:#181818;stroke-width:0.5;"/></g><g class="participant participant-head" data-participant="FastAPI"><rect fill="#E2E2F0" height="30.9395" rx="2.5" ry="2.5" style="stroke:#181818;stroke-width:0.5;" width="95.1973" x="191.6694" y="87.9395"/><text fill="#000000" font-family="sans-serif" font-size="14" lengthAdjust="spacing" textLength="81.1973" x="198.6694" y="108.502">FastAPI App</text></g><g class="participant participant-tail" data-participant="FastAPI"><rect fill="#E2E2F0" height="30.9395" rx="2.5" ry="2.5" style="stroke:#181818;stroke-width:0.5;" width="95.1973" x="191.6694" y="1683.624"/><text fill="#000000" font-family="sans-serif" font-size="14" lengthAdjust="spacing" textLength="81.1973" x="198.6694" y="1704.1865">FastAPI App</text></g><g class="participant participant-head" data-participant="ClientLib"><rect fill="#E2E2F0" height="30.9395" rx="2.5" ry="2.5" style="stroke:#181818;stroke-width:0.5;" width="106.6133" x="397.3379" y="87.9395"/><text fill="#000000" font-family="sans-serif" font-size="14" lengthAdjust="spacing" textLength="92.6133" x="404.3379" y="108.502">FlextApiClient</text></g><g class="participant participant-tail" data-participant="ClientLib"><rect fill="#E2E2F0" height="30.9395" rx="2.5" ry="2.5" style="stroke:#181818;stroke-width:0.5;" width="106.6133" x="397.3379" y="1683.624"/><text fill="#000000" font-family="sans-serif" font-size="14" lengthAdjust="spacing" textLength="92.6133" x="404.3379" y="1704.1865">FlextApiClient</text></g><g class="participant participant-head" data-participant="Protocol"><rect fill="#E2E2F0" height="30.9395" rx="2.5" ry="2.5" style="stroke:#181818;stroke-width:0.5;" width="110.8447" x="621.918" y="87.9395"/><text fill="#000000" font-family="sans-serif" font-size="14" lengthAdjust="spacing" textLength="96.8447" x="628.918" y="108.502">Protocol Layer</text></g><g class="participant participant-tail" data-participant="Protocol"><rect fill="#E2E2F0" height="30.9395" rx="2.5" ry="2.5" style="stroke:#181818;stroke-width:0.5;" width="110.8447" x="621.918" y="1683.624"/><text fill="#000000" font-family="sans-serif" font-size="14" lengthAdjust="spacing" textLength="96.8447" x="628.918" y="1704.1865">Protocol Layer</text></g><g class="participant participant-head" data-participant="HTTPX"><rect fill="#E2E2F0" height="30.9395" rx="2.5" ry="2.5" style="stroke:#181818;stroke-width:0.5;" width="103.3936" x="800.8936" y="87.9395"/><text fill="#000000" font-family="sans-serif" font-size="14" lengthAdjust="spacing" textLength="89.3936" x="807.8936" y="108.502">HTTPX Client</text></g><g class="participant participant-tail" data-participant="HTTPX"><rect fill="#E2E2F0" height="30.9395" rx="2.5" ry="2.5" style="stroke:#181818;stroke-width:0.5;" width="103.3936" x="800.8936" y="1683.624"/><text fill="#000000" font-family="sans-serif" font-size="14" lengthAdjust="spacing" textLength="89.3936" x="807.8936" y="1704.1865">HTTPX Client</text></g><g class="participant participant-head" data-participant="External"><rect fill="#E2E2F0" height="30.9395" rx="2.5" ry="2.5" style="stroke:#181818;stroke-width:0.5;" width="94.3564" x="968.9233" y="87.9395"/><text fill="#000000" font-family="sans-serif" font-size="14" lengthAdjust="spacing" textLength="80.3564" x="975.9233" y="108.502">External API</text></g><g class="participant participant-tail" data-participant="External"><rect fill="#E2E2F0" height="30.9395" rx="2.5" ry="2.5" style="stroke:#181818;stroke-width:0.5;" width="94.3564" x="968.9233" y="1683.624"/><text fill="#000000" font-family="sans-serif" font-size="14" lengthAdjust="spacing" textLength="80.3564" x="975.9233" y="1704.1865">External API</text></g><g><title>FastAPI App</title><rect fill="#FFFFFF" height="937.1553" style="stroke:#181818;stroke-width:1;" width="10" x="234.2681" y="211.0674"/></g><g><title>FlextApiClient</title><rect fill="#FFFFFF" height="745.0488" style="stroke:#181818;stroke-width:1;" width="10" x="445.6445" y="299.2559"/></g><g><title>Protocol Layer</title><rect fill="#FFFFFF" height="325.0244" style="stroke:#181818;stroke-width:1;" width="10" x="672.3403" y="560.3623"/></g><g><title>HTTPX Client</title><rect fill="#FFFFFF" height="207.1064" style="stroke:#181818;stroke-width:1;" width="10" x="847.5903" y="590.0918"/></g><g><title>External API</title><rect fill="#FFFFFF" height="89.1885" style="stroke:#181818;stroke-width:1;" width="10" x="1011.1016" y="678.2803"/></g><rect fill="#EEEEEE" height="3" style="stroke:#EEEEEE;stroke-width:1;" width="1083.2798" x="0" y="150.7437"/><line style="stroke:#000000;stroke-width:1;" x1="0" x2="1083.2798" y1="150.7437" y2="150.7437"/><line style="stroke:#000000;stroke-width:1;" x1="0" x2="1083.2798" y1="153.7437" y2="153.7437"/><rect fill="#EEEEEE" height="23.7295" style="stroke:#000000;stroke-width:2;" width="130.4033" x="476.4382" y="139.8789"/><text fill="#000000" font-family="sans-serif" font-size="13" font-weight="bold" lengthAdjust="spacing" textLength="112.7471" x="482.4382" y="156.4727">Request Initiation</text><g class="message" data-participant-1="Client" data-participant-2="FastAPI"><polygon fill="#181818" points="222.2681,207.0674,232.2681,211.0674,222.2681,215.0674,226.2681,211.0674" style="stroke:#181818;stroke-width:1;"/><line style="stroke:#181818;stroke-width:1;" x1="81.4849" x2="228.2681" y1="211.0674" y2="211.0674"/><text fill="#000000" font-family="sans-serif" font-size="13" lengthAdjust="spacing" textLength="88.6895" x="88.4849" y="190.2021">HTTP Request</text><text fill="#000000" font-family="sans-serif" font-size="13" lengthAdjust="spacing" textLength="100.7056" x="88.4849" y="205.9316">(GET /api/users)</text></g><g class="message" data-participant-1="FastAPI" data-participant-2="FastAPI"><line style="stroke:#181818;stroke-width:1;" x1="244.2681" x2="286.2681" y1="256.5264" y2="256.5264"/><line style="stroke:#181818;stroke-width:1;" x1="286.2681" x2="286.2681" y1="256.5264" y2="269.5264"/><line style="stroke:#181818;stroke-width:1;" x1="245.2681" x2="286.2681" y1="269.5264" y2="269.5264"/><polygon fill="#181818" points="255.2681,265.5264,245.2681,269.5264,255.2681,273.5264,251.2681,269.5264" style="stroke:#181818;stroke-width:1;"/><text fill="#000000" font-family="sans-serif" font-size="13" lengthAdjust="spacing" textLength="96.1924" x="251.2681" y="235.6611">Route matching</text><text fill="#000000" font-family="sans-serif" font-size="13" lengthAdjust="spacing" textLength="71.5" x="251.2681" y="251.3906">&amp; validation</text></g><g class="message" data-participant-1="FastAPI" data-participant-2="ClientLib"><polygon fill="#181818" points="433.6445,295.2559,443.6445,299.2559,433.6445,303.2559,437.6445,299.2559" style="stroke:#181818;stroke-width:1;"/><line style="stroke:#181818;stroke-width:1;" x1="244.2681" x2="439.6445" y1="299.2559" y2="299.2559"/><text fill="#000000" font-family="sans-serif" font-size="13" lengthAdjust="spacing" textLength="140.4736" x="251.2681" y="294.1201">client.get("/api/users")</text></g><rect fill="#EEEEEE" height="3" style="stroke:#EEEEEE;stroke-width:1;" width="1083.2798" x="0" y="328.1206"/><line style="stroke:#000000;stroke-width:1;" x1="0" x2="1083.2798" y1="328.1206" y2="328.1206"/><line style="stroke:#000000;stroke-width:1;" x1="0" x2="1083.2798" y1="331.1206" y2="331.1206"/><rect fill="#EEEEEE" height="23.7295" style="stroke:#000000;stroke-width:2;" width="127.3755" x="477.9521" y="317.2559"/><text fill="#000000" font-family="sans-serif" font-size="13" font-weight="bold" lengthAdjust="spacing" textLength="109.7192" x="483.9521" y="333.8496">Request Building</text><g class="message" data-participant-1="ClientLib" data-participant-2="ClientLib"><line style="stroke:#181818;stroke-width:1;" x1="455.6445" x2="497.6445" y1="388.4443" y2="388.4443"/><line style="stroke:#181818;stroke-width:1;" x1="497.6445" x2="497.6445" y1="388.4443" y2="401.4443"/><line style="stroke:#181818;stroke-width:1;" x1="456.6445" x2="497.6445" y1="401.4443" y2="401.4443"/><polygon fill="#181818" points="466.6445,397.4443,456.6445,401.4443,466.6445,405.4443,462.6445,401.4443" style="stroke:#181818;stroke-width:1;"/><text fill="#000000" font-family="sans-serif" font-size="13" lengthAdjust="spacing" textLength="110.9507" x="462.6445" y="367.5791">Build HttpRequest</text><text fill="#000000" font-family="sans-serif" font-size="13" lengthAdjust="spacing" textLength="136.9697" x="462.6445" y="383.3086">(method, url, headers)</text></g><g class="message" data-participant-1="ClientLib" data-participant-2="ClientLib"><line style="stroke:#181818;stroke-width:1;" x1="455.6445" x2="497.6445" y1="431.1738" y2="431.1738"/><line style="stroke:#181818;stroke-width:1;" x1="497.6445" x2="497.6445" y1="431.1738" y2="444.1738"/><line style="stroke:#181818;stroke-width:1;" x1="456.6445" x2="497.6445" y1="444.1738" y2="444.1738"/><polygon fill="#181818" points="466.6445,440.1738,456.6445,444.1738,466.6445,448.1738,462.6445,444.1738" style="stroke:#181818;stroke-width:1;"/><text fill="#000000" font-family="sans-serif" font-size="13" lengthAdjust="spacing" textLength="126.623" x="462.6445" y="426.0381">Apply authentication</text></g><g class="message" data-participant-1="ClientLib" data-participant-2="ClientLib"><line style="stroke:#181818;stroke-width:1;" x1="455.6445" x2="497.6445" y1="473.9033" y2="473.9033"/><line style="stroke:#181818;stroke-width:1;" x1="497.6445" x2="497.6445" y1="473.9033" y2="486.9033"/><line style="stroke:#181818;stroke-width:1;" x1="456.6445" x2="497.6445" y1="486.9033" y2="486.9033"/><polygon fill="#181818" points="466.6445,482.9033,456.6445,486.9033,466.6445,490.9033,462.6445,486.9033" style="stroke:#181818;stroke-width:1;"/><text fill="#000000" font-family="sans-serif" font-size="13" lengthAdjust="spacing" textLength="172.4087" x="462.6445" y="468.7676">Add middleware processing</text></g><rect fill="#EEEEEE" height="3" style="stroke:#EEEEEE;stroke-width:1;" width="1083.2798" x="0" y="515.7681"/><line style="stroke:#000000;stroke-width:1;" x1="0" x2="1083.2798" y1="515.7681" y2="515.7681"/><line style="stroke:#000000;stroke-width:1;" x1="0" x2="1083.2798" y1="518.7681" y2="518.7681"/><rect fill="#EEEEEE" height="23.7295" style="stroke:#000000;stroke-width:2;" width="140.5405" x="471.3696" y="504.9033"/><text fill="#000000" font-family="sans-serif" font-size="13" font-weight="bold" lengthAdjust="spacing" textLength="122.8843" x="477.3696" y="521.4971">Protocol Execution</text><g class="message" data-participant-1="ClientLib" data-participant-2="Protocol"><polygon fill="#181818" points="660.3403,556.3623,670.3403,560.3623,660.3403,564.3623,664.3403,560.3623" style="stroke:#181818;stroke-width:1;"/><line style="stroke:#181818;stroke-width:1;" x1="455.6445" x2="666.3403" y1="560.3623" y2="560.3623"/><text fill="#000000" font-family="sans-serif" font-size="13" lengthAdjust="spacing" textLength="158.2407" x="462.6445" y="555.2266">execute_request(request)</text></g><g class="message" data-participant-1="Protocol" data-participant-2="HTTPX"><polygon fill="#181818" points="835.5903,586.0918,845.5903,590.0918,835.5903,594.0918,839.5903,590.0918" style="stroke:#181818;stroke-width:1;"/><line style="stroke:#181818;stroke-width:1;" x1="682.3403" x2="841.5903" y1="590.0918" y2="590.0918"/><text fill="#000000" font-family="sans-serif" font-size="13" lengthAdjust="spacing" textLength="146.25" x="689.3403" y="584.9561">Prepare HTTPX request</text></g><g class="message" data-participant-1="HTTPX" data-participant-2="HTTPX"><line style="stroke:#181818;stroke-width:1;" x1="857.5903" x2="899.5903" y1="635.5508" y2="635.5508"/><line style="stroke:#181818;stroke-width:1;" x1="899.5903" x2="899.5903" y1="635.5508" y2="648.5508"/><line style="stroke:#181818;stroke-width:1;" x1="858.5903" x2="899.5903" y1="648.5508" y2="648.5508"/><polygon fill="#181818" points="868.5903,644.5508,858.5903,648.5508,868.5903,652.5508,864.5903,648.5508" style="stroke:#181818;stroke-width:1;"/><text fill="#000000" font-family="sans-serif" font-size="13" lengthAdjust="spacing" textLength="120.123" x="864.5903" y="614.6855">Connection pooling</text><text fill="#000000" font-family="sans-serif" font-size="13" lengthAdjust="spacing" textLength="87.5405" x="864.5903" y="630.415">&amp; reuse check</text></g><g class="message" data-participant-1="HTTPX" data-participant-2="External"><polygon fill="#181818" points="999.1016,674.2803,1009.1016,678.2803,999.1016,682.2803,1003.1016,678.2803" style="stroke:#181818;stroke-width:1;"/><line style="stroke:#181818;stroke-width:1;" x1="857.5903" x2="1005.1016" y1="678.2803" y2="678.2803"/><text fill="#000000" font-family="sans-serif" font-size="13" lengthAdjust="spacing" textLength="129.6255" x="864.5903" y="673.1445">HTTP GET /api/users</text></g><rect fill="#EEEEEE" height="3" style="stroke:#EEEEEE;stroke-width:1;" width="1083.2798" x="0" y="707.145"/><line style="stroke:#000000;stroke-width:1;" x1="0" x2="1083.2798" y1="707.145" y2="707.145"/><line style="stroke:#000000;stroke-width:1;" x1="0" x2="1083.2798" y1="710.145" y2="710.145"/><rect fill="#EEEEEE" height="23.7295" style="stroke:#000000;stroke-width:2;" width="157.8315" x="462.7241" y="696.2803"/><text fill="#000000" font-family="sans-serif" font-size="13" font-weight="bold" lengthAdjust="spacing" textLength="140.1753" x="468.7241" y="712.874">Response Processing</text><g class="message" data-participant-1="External" data-participant-2="HTTPX"><polygon fill="#181818" points="868.5903,763.4688,858.5903,767.4688,868.5903,771.4688,864.5903,767.4688" style="stroke:#181818;stroke-width:1;"/><line style="stroke:#181818;stroke-width:1;stroke-dasharray:2,2;" x1="862.5903" x2="1015.1016" y1="767.4688" y2="767.4688"/><text fill="#000000" font-family="sans-serif" font-size="13" lengthAdjust="spacing" textLength="99.0869" x="874.5903" y="746.6035">HTTP Response</text><text fill="#000000" font-family="sans-serif" font-size="13" lengthAdjust="spacing" textLength="129.5112" x="874.5903" y="762.333">(200 OK, JSON data)</text></g><g class="message" data-participant-1="HTTPX" data-participant-2="Protocol"><polygon fill="#181818" points="693.3403,793.1982,683.3403,797.1982,693.3403,801.1982,689.3403,797.1982" style="stroke:#181818;stroke-width:1;"/><line style="stroke:#181818;stroke-width:1;stroke-dasharray:2,2;" x1="687.3403" x2="851.5903" y1="797.1982" y2="797.1982"/><text fill="#000000" font-family="sans-serif" font-size="13" lengthAdjust="spacing" textLength="125.5757" x="699.3403" y="792.0625">Raw HTTP response</text></g><g class="message" data-participant-1="Protocol" data-participant-2="Protocol"><line style="stroke:#181818;stroke-width:1;" x1="682.3403" x2="724.3403" y1="842.6572" y2="842.6572"/><line style="stroke:#181818;stroke-width:1;" x1="724.3403" x2="724.3403" y1="842.6572" y2="855.6572"/><line style="stroke:#181818;stroke-width:1;" x1="683.3403" x2="724.3403" y1="855.6572" y2="855.6572"/><polygon fill="#181818" points="693.3403,851.6572,683.3403,855.6572,693.3403,859.6572,689.3403,855.6572" style="stroke:#181818;stroke-width:1;"/><text fill="#000000" font-family="sans-serif" font-size="13" lengthAdjust="spacing" textLength="123.811" x="689.3403" y="821.792">Response validation</text><text fill="#000000" font-family="sans-serif" font-size="13" lengthAdjust="spacing" textLength="57.8462" x="689.3403" y="837.5215">&amp; parsing</text></g><g class="message" data-participant-1="Protocol" data-participant-2="ClientLib"><polygon fill="#181818" points="466.6445,881.3867,456.6445,885.3867,466.6445,889.3867,462.6445,885.3867" style="stroke:#181818;stroke-width:1;"/><line style="stroke:#181818;stroke-width:1;stroke-dasharray:2,2;" x1="460.6445" x2="676.3403" y1="885.3867" y2="885.3867"/><text fill="#000000" font-family="sans-serif" font-size="13" lengthAdjust="spacing" textLength="164.8042" x="472.6445" y="880.251">FlextCore.Result[HttpResponse]</text></g><rect fill="#EEEEEE" height="3" style="stroke:#EEEEEE;stroke-width:1;" width="1083.2798" x="0" y="914.2515"/><line style="stroke:#000000;stroke-width:1;" x1="0" x2="1083.2798" y1="914.2515" y2="914.2515"/><line style="stroke:#000000;stroke-width:1;" x1="0" x2="1083.2798" y1="917.2515" y2="917.2515"/><rect fill="#EEEEEE" height="23.7295" style="stroke:#000000;stroke-width:2;" width="134.6626" x="474.3086" y="903.3867"/><text fill="#000000" font-family="sans-serif" font-size="13" font-weight="bold" lengthAdjust="spacing" textLength="117.0063" x="480.3086" y="919.9805">Result Processing</text><g class="message" data-participant-1="ClientLib" data-participant-2="ClientLib"><line style="stroke:#181818;stroke-width:1;" x1="455.6445" x2="497.6445" y1="958.8457" y2="958.8457"/><line style="stroke:#181818;stroke-width:1;" x1="497.6445" x2="497.6445" y1="958.8457" y2="971.8457"/><line style="stroke:#181818;stroke-width:1;" x1="456.6445" x2="497.6445" y1="971.8457" y2="971.8457"/><polygon fill="#181818" points="466.6445,967.8457,456.6445,971.8457,466.6445,975.8457,462.6445,971.8457" style="stroke:#181818;stroke-width:1;"/><text fill="#000000" font-family="sans-serif" font-size="13" lengthAdjust="spacing" textLength="172.3262" x="462.6445" y="953.71">Apply response middleware</text></g><g class="message" data-participant-1="ClientLib" data-participant-2="ClientLib"><line style="stroke:#181818;stroke-width:1;" x1="455.6445" x2="497.6445" y1="1001.5752" y2="1001.5752"/><line style="stroke:#181818;stroke-width:1;" x1="497.6445" x2="497.6445" y1="1001.5752" y2="1014.5752"/><line style="stroke:#181818;stroke-width:1;" x1="456.6445" x2="497.6445" y1="1014.5752" y2="1014.5752"/><polygon fill="#181818" points="466.6445,1010.5752,456.6445,1014.5752,466.6445,1018.5752,462.6445,1014.5752" style="stroke:#181818;stroke-width:1;"/><text fill="#000000" font-family="sans-serif" font-size="13" lengthAdjust="spacing" textLength="192.6958" x="462.6445" y="996.4395">Error handling &amp; transformation</text></g><g class="message" data-participant-1="ClientLib" data-participant-2="FastAPI"><polygon fill="#181818" points="255.2681,1040.3047,245.2681,1044.3047,255.2681,1048.3047,251.2681,1044.3047" style="stroke:#181818;stroke-width:1;"/><line style="stroke:#181818;stroke-width:1;stroke-dasharray:2,2;" x1="249.2681" x2="449.6445" y1="1044.3047" y2="1044.3047"/><text fill="#000000" font-family="sans-serif" font-size="13" lengthAdjust="spacing" textLength="135.2368" x="261.2681" y="1039.1689">FlextCore.Result[UserData]</text></g><g class="message" data-participant-1="FastAPI" data-participant-2="FastAPI"><line style="stroke:#181818;stroke-width:1;" x1="244.2681" x2="286.2681" y1="1089.7637" y2="1089.7637"/><line style="stroke:#181818;stroke-width:1;" x1="286.2681" x2="286.2681" y1="1089.7637" y2="1102.7637"/><line style="stroke:#181818;stroke-width:1;" x1="245.2681" x2="286.2681" y1="1102.7637" y2="1102.7637"/><polygon fill="#181818" points="255.2681,1098.7637,245.2681,1102.7637,255.2681,1106.7637,251.2681,1102.7637" style="stroke:#181818;stroke-width:1;"/><text fill="#000000" font-family="sans-serif" font-size="13" lengthAdjust="spacing" textLength="127.8354" x="251.2681" y="1068.8984">Response formatting</text><text fill="#000000" font-family="sans-serif" font-size="13" lengthAdjust="spacing" textLength="85.8965" x="251.2681" y="1084.6279">&amp; serialization</text></g><g class="message" data-participant-1="FastAPI" data-participant-2="Client"><polygon fill="#181818" points="92.4849,1144.2227,82.4849,1148.2227,92.4849,1152.2227,88.4849,1148.2227" style="stroke:#181818;stroke-width:1;"/><line style="stroke:#181818;stroke-width:1;stroke-dasharray:2,2;" x1="86.4849" x2="238.2681" y1="1148.2227" y2="1148.2227"/><text fill="#000000" font-family="sans-serif" font-size="13" lengthAdjust="spacing" textLength="99.8359" x="98.4849" y="1127.3574">JSON Response</text><text fill="#000000" font-family="sans-serif" font-size="13" lengthAdjust="spacing" textLength="121.0371" x="98.4849" y="1143.0869">(200 OK, user data)</text></g><rect fill="#EEEEEE" height="3" style="stroke:#EEEEEE;stroke-width:1;" width="1083.2798" x="0" y="1177.0874"/><line style="stroke:#000000;stroke-width:1;" x1="0" x2="1083.2798" y1="1177.0874" y2="1177.0874"/><line style="stroke:#000000;stroke-width:1;" x1="0" x2="1083.2798" y1="1180.0874" y2="1180.0874"/><rect fill="#EEEEEE" height="23.7295" style="stroke:#000000;stroke-width:2;" width="172.939" x="455.1704" y="1166.2227"/><text fill="#000000" font-family="sans-serif" font-size="13" font-weight="bold" lengthAdjust="spacing" textLength="155.2827" x="461.1704" y="1182.8164">Error Handling Scenario</text><path d="M10,1206.9521 L148.3931,1206.9521 L148.3931,1214.6816 L138.3931,1224.6816 L10,1224.6816 L10,1206.9521" fill="#EEEEEE" style="stroke:#000000;stroke-width:1.5;"/><rect fill="none" height="460.6719" style="stroke:#000000;stroke-width:1.5;" width="1063.2798" x="10" y="1206.9521"/><text fill="#000000" font-family="sans-serif" font-size="13" font-weight="bold" lengthAdjust="spacing" textLength="93.3931" x="25" y="1220.5459">Error Scenario</text><g class="message" data-participant-1="Client" data-participant-2="FastAPI"><polygon fill="#181818" points="227.2681,1258.1406,237.2681,1262.1406,227.2681,1266.1406,231.2681,1262.1406" style="stroke:#181818;stroke-width:1;"/><line style="stroke:#181818;stroke-width:1;" x1="81.4849" x2="233.2681" y1="1262.1406" y2="1262.1406"/><text fill="#000000" font-family="sans-serif" font-size="13" lengthAdjust="spacing" textLength="88.6895" x="88.4849" y="1241.2754">HTTP Request</text><text fill="#000000" font-family="sans-serif" font-size="13" lengthAdjust="spacing" textLength="113.8833" x="88.4849" y="1257.0049">(GET /api/missing)</text></g><g class="message" data-participant-1="FastAPI" data-participant-2="ClientLib"><polygon fill="#181818" points="438.6445,1287.8701,448.6445,1291.8701,438.6445,1295.8701,442.6445,1291.8701" style="stroke:#181818;stroke-width:1;"/><line style="stroke:#181818;stroke-width:1;" x1="239.2681" x2="444.6445" y1="1291.8701" y2="1291.8701"/><text fill="#000000" font-family="sans-serif" font-size="13" lengthAdjust="spacing" textLength="153.6514" x="246.2681" y="1286.7344">client.get("/api/missing")</text></g><g class="message" data-participant-1="ClientLib" data-participant-2="Protocol"><polygon fill="#181818" points="665.3403,1317.5996,675.3403,1321.5996,665.3403,1325.5996,669.3403,1321.5996" style="stroke:#181818;stroke-width:1;"/><line style="stroke:#181818;stroke-width:1;" x1="450.6445" x2="671.3403" y1="1321.5996" y2="1321.5996"/><text fill="#000000" font-family="sans-serif" font-size="13" lengthAdjust="spacing" textLength="158.2407" x="457.6445" y="1316.4639">execute_request(request)</text></g><g class="message" data-participant-1="Protocol" data-participant-2="HTTPX"><polygon fill="#181818" points="840.5903,1347.3291,850.5903,1351.3291,840.5903,1355.3291,844.5903,1351.3291" style="stroke:#181818;stroke-width:1;"/><line style="stroke:#181818;stroke-width:1;" x1="677.3403" x2="846.5903" y1="1351.3291" y2="1351.3291"/><text fill="#000000" font-family="sans-serif" font-size="13" lengthAdjust="spacing" textLength="142.8032" x="684.3403" y="1346.1934">HTTP GET /api/missing</text></g><g class="message" data-participant-1="External" data-participant-2="HTTPX"><polygon fill="#181818" points="863.5903,1392.7881,853.5903,1396.7881,863.5903,1400.7881,859.5903,1396.7881" style="stroke:#181818;stroke-width:1;"/><line style="stroke:#181818;stroke-width:1;stroke-dasharray:2,2;" x1="857.5903" x2="1015.1016" y1="1396.7881" y2="1396.7881"/><text fill="#000000" font-family="sans-serif" font-size="13" lengthAdjust="spacing" textLength="99.0869" x="869.5903" y="1375.9229">HTTP Response</text><text fill="#000000" font-family="sans-serif" font-size="13" lengthAdjust="spacing" textLength="102.4321" x="869.5903" y="1391.6523">(404 Not Found)</text></g><g class="message" data-participant-1="HTTPX" data-participant-2="Protocol"><polygon fill="#181818" points="688.3403,1422.5176,678.3403,1426.5176,688.3403,1430.5176,684.3403,1426.5176" style="stroke:#181818;stroke-width:1;"/><line style="stroke:#181818;stroke-width:1;stroke-dasharray:2,2;" x1="682.3403" x2="851.5903" y1="1426.5176" y2="1426.5176"/><text fill="#000000" font-family="sans-serif" font-size="13" lengthAdjust="spacing" textLength="91.1587" x="694.3403" y="1421.3818">Error response</text></g><g class="message" data-participant-1="Protocol" data-participant-2="Protocol"><line style="stroke:#181818;stroke-width:1;" x1="677.3403" x2="719.3403" y1="1456.2471" y2="1456.2471"/><line style="stroke:#181818;stroke-width:1;" x1="719.3403" x2="719.3403" y1="1456.2471" y2="1469.2471"/><line style="stroke:#181818;stroke-width:1;" x1="678.3403" x2="719.3403" y1="1469.2471" y2="1469.2471"/><polygon fill="#181818" points="688.3403,1465.2471,678.3403,1469.2471,688.3403,1473.2471,684.3403,1469.2471" style="stroke:#181818;stroke-width:1;"/><text fill="#000000" font-family="sans-serif" font-size="13" lengthAdjust="spacing" textLength="144.6694" x="684.3403" y="1451.1113">Validate error response</text></g><g class="message" data-participant-1="Protocol" data-participant-2="ClientLib"><polygon fill="#181818" points="461.6445,1494.9766,451.6445,1498.9766,461.6445,1502.9766,457.6445,1498.9766" style="stroke:#181818;stroke-width:1;"/><line style="stroke:#181818;stroke-width:1;stroke-dasharray:2,2;" x1="455.6445" x2="676.3403" y1="1498.9766" y2="1498.9766"/><text fill="#000000" font-family="sans-serif" font-size="13" lengthAdjust="spacing" textLength="176.0903" x="467.6445" y="1493.8408">FlextCore.Result.fail("HTTP 404")</text></g><g class="message" data-participant-1="ClientLib" data-participant-2="ClientLib"><line style="stroke:#181818;stroke-width:1;" x1="450.6445" x2="492.6445" y1="1528.7061" y2="1528.7061"/><line style="stroke:#181818;stroke-width:1;" x1="492.6445" x2="492.6445" y1="1528.7061" y2="1541.7061"/><line style="stroke:#181818;stroke-width:1;" x1="451.6445" x2="492.6445" y1="1541.7061" y2="1541.7061"/><polygon fill="#181818" points="461.6445,1537.7061,451.6445,1541.7061,461.6445,1545.7061,457.6445,1541.7061" style="stroke:#181818;stroke-width:1;"/><text fill="#000000" font-family="sans-serif" font-size="13" lengthAdjust="spacing" textLength="145.1709" x="457.6445" y="1523.5703">Apply error middleware</text></g><g class="message" data-participant-1="ClientLib" data-participant-2="FastAPI"><polygon fill="#181818" points="250.2681,1567.4355,240.2681,1571.4355,250.2681,1575.4355,246.2681,1571.4355" style="stroke:#181818;stroke-width:1;"/><line style="stroke:#181818;stroke-width:1;stroke-dasharray:2,2;" x1="244.2681" x2="449.6445" y1="1571.4355" y2="1571.4355"/><text fill="#000000" font-family="sans-serif" font-size="13" lengthAdjust="spacing" textLength="187.3765" x="256.2681" y="1566.2998">FlextCore.Result[UserData] (failure)</text></g><g class="message" data-participant-1="FastAPI" data-participant-2="FastAPI"><line style="stroke:#181818;stroke-width:1;" x1="239.2681" x2="281.2681" y1="1601.165" y2="1601.165"/><line style="stroke:#181818;stroke-width:1;" x1="281.2681" x2="281.2681" y1="1601.165" y2="1614.165"/><line style="stroke:#181818;stroke-width:1;" x1="240.2681" x2="281.2681" y1="1614.165" y2="1614.165"/><polygon fill="#181818" points="250.2681,1610.165,240.2681,1614.165,250.2681,1618.165,246.2681,1614.165" style="stroke:#181818;stroke-width:1;"/><text fill="#000000" font-family="sans-serif" font-size="13" lengthAdjust="spacing" textLength="158.3105" x="246.2681" y="1596.0293">Error response formatting</text></g><g class="message" data-participant-1="FastAPI" data-participant-2="Client"><polygon fill="#181818" points="92.4849,1655.624,82.4849,1659.624,92.4849,1663.624,88.4849,1659.624" style="stroke:#181818;stroke-width:1;"/><line style="stroke:#181818;stroke-width:1;stroke-dasharray:2,2;" x1="86.4849" x2="238.2681" y1="1659.624" y2="1659.624"/><text fill="#000000" font-family="sans-serif" font-size="13" lengthAdjust="spacing" textLength="133.7832" x="98.4849" y="1638.7588">JSON Error Response</text><text fill="#000000" font-family="sans-serif" font-size="13" lengthAdjust="spacing" textLength="102.4321" x="98.4849" y="1654.4883">(404 Not Found)</text></g><!--SRC=[bLLTJzim57tFhxZg0sgbyg69fqgTrB5sPQkWAjs4DAR9IoxKccjdZaE1NxyRsqcSD6MC5y0zvtwSU-wjuKOWp1RJs_NnP7a9y_Lw2IlyasDcOAbLZ5d6vGFCXDf54OkDqj2x41obWKcQ2XupmvNi0Sl0FKSfquR7F6K4wSrOPeguXBKO_tyB9F39J5Bk0WIn5lnN4qaL6HKh0GlsZDeYowSciEZZ5eA0zg69cJuPr989e88ifdo8el6u4k5ISiDjap0UHxxru_Tb9wE6P7Uo_scwXbEMyjCyGvqD2itu8pDOjHwLceH1LYedo9QPU4DotyaZU6I29pPlIAXq6K5i_pnvGDFlrGbxGSPQnB2X3paNIJ7JgXr2j69R3CoDIUl6jcWsAXb2hiKGDiWIszwX28Kvde7bPaCltYM7mKa2Mvua0dTC8wILxspXrT2dJnZdpKduM2La16Wn-5Exkll-Tw1APPYe2amHh3z6z26cHGdEFvvSSvsB8lTfpRfGKc9iAqkL4dw26caY46ym_bqpIezvtpJTKYTgMJ5BbSmmN4XIeFBlSLs9DwF3qz3UdPt1zPSXVBwvlWAo4nj42NPayVKrf5ondOkdVRoGwfK89GoOPS6rYGj1I5axr9hKj86z0yJDXVdklEV2_0WJr-DpoX2ufSlhbYoR2Gnta37LckxTXicac2aSWT5CPlTAR_Vy72vpsCTNckj7qhtHGx2OdSUWBD5bCjvF58cJdY-jer2LF79JxfX-OQxzwLS7YOHqdSxBJczYb4npLSZve5MUUa3v7W7z_CSjt78xdO7blV6SUGuTj23Rs_Uzu7GiU7FhV0uBViiwdP-TmvKoC5EvJ7nXNQlZrAhsfbrB3Vpc5WG1NsCSN9EJUyP5ttxR0TNMgTNU1hXKWVrRb7zQ6Vf5sboZJzVbuQO2WPERZBPv7UsmuYYJw2y0]--></g></svg>
